- 
http://www.Speed.Cd      fast  and The Hottest Private Tracker on the net

Please Seed back to make the speed Faster!!!

------------------nfo--------------------------
-[img]http://img687.imageshack.us/img687/9336/96ca5dflypaper.jpg[/img]

Flypaper.LIMITED.2011.BRRip.XviD.AC3-EMBER 
http://www.imdb.com/title/tt1541160 

Plot:
Tripp ('Patrick Dempsey' ) walks into a bank to get some change and ends up as a hostage to two bank 
robber-teams, robbing the bank he is at.

Source                           : 720p.Bluray.x264-TWiZTED Thanks
Subs                             : English

General
Format                           : AVI
Format/Info                      : Audio Video Interleave
File size                        : 1.39 GiB
Duration                         : 1h 27mn
Overall bit rate                 : 2 288 Kbps
Writing application              : VirtualDubMod 1.5.10.2 (build 2540/release)
Writing library                  : VirtualDubMod build 2540/release

Video
ID                               : 0
Format                           : MPEG-4 Visual
Format profile                   : Advanced Simple@L5
Format settings, BVOP            : 2
Format settings, QPel            : No
Format settings, GMC             : No warppoints
Format settings, Matrix          : Default (H.263)
Muxing mode                      : Packed bitstream
Codec ID                         : XVID
Codec ID/Hint                    : XviD
Duration                         : 1h 27mn
Bit rate                         : 1 895 Kbps
Width                            : 720 pixels
Height                           : 304 pixels
Display aspect ratio             : 2.35:1
Frame rate                       : 23.976 fps
Color space                      : YUV
Chroma subsampling               : 4:2:0
Bit depth                        : 8 bits
Scan type                        : Progressive
Compression mode                 : Lossy
Bits/(Pixel*Frame)               : 0.361
Stream size                      : 1.15 GiB (83%)
Writing library                  : XviD 64

Audio
ID                               : 1
Format                           : AC-3
Format/Info                      : Audio Coding 3
Mode extension                   : CM (complete main)
Codec ID                         : 2000
Duration                         : 1h 27mn
Bit rate mode                    : Constant
Bit rate                         : 384 Kbps
Channel(s)                       : 6 channels
Channel positions                : Front: L C R, Side: L R, LFE
Sampling rate                    : 48.0 KHz
Bit depth                        : 16 bits
Compression mode                 : Lossy
Stream size                      : 240 MiB (17%)
Alignment                        : Split accross interleaves
Interleave, duration             : 42 ms (1.00 video frame)
Interleave, preload duration     : 500 ms

Screens
[img]http://img823.imageshack.us/img823/8343/37286119.png[/img]
[img]http://img571.imageshack.us/img571/7551/56288086.png[/img]
[img]http://img267.imageshack.us/img267/6254/24054390.png[/img]
[img]http://img14.imageshack.us/img14/4893/52731995.png[/img]
[img]http://img834.imageshack.us/img834/6726/63957556.png[/img]

Greetz to 

SHiRK, SHK, LKRG, UnKnOwN, IMAGiNE, SiC, BHRG, TaRiQ786, FLAWL3SS, Rx, Hive-CM8

SAMURAi, ViSUALiSE, RemixHD

And to all other groups past and present

Got something to offer?

then you should know where to find us